<svg xmlns="http://www.w3.org/2000/svg" width="18" height="18" viewBox="0 0 18 18"><title>kb</title><path d="M13,7a3,3,0,0,0-1.25.28,6.73,6.73,0,0,1-.69,2.93c-0.05.12-.12,0.23-0.19,0.35l-0.47.93v0a1.73,1.73,0,0,0,.11.18L13,16l2.49-4.32a1.73,1.73,0,0,0,.11-0.18A3,3,0,0,0,13,7Z" fill="#ff7d03"/><path d="M6,3A4,4,0,0,0,2.25,7.23a4.69,4.69,0,0,0,.5,2.11,2.51,2.51,0,0,0,.14.25C4.17,12.12,6,16,6,16s1.83-3.88,3.11-6.4a2.52,2.52,0,0,0,.14-0.25,4.69,4.69,0,0,0,.5-2.11A4,4,0,0,0,6,3ZM6,9.5A2.5,2.5,0,1,1,8.5,7,2.5,2.5,0,0,1,6,9.5Z" fill="#ff7d03"/></svg>