<svg xmlns="http://www.w3.org/2000/svg" width="18" height="18" viewBox="0 0 18 18"><title>kb</title><rect x="6" y="14" width="1" height="1" fill="#8d9bb3"/><rect x="11" y="14" width="1" height="1" fill="#8d9bb3"/><path d="M11,5V2H7V5A2,2,0,0,0,5,7v5a2,2,0,0,0,2,2h4a2,2,0,0,0,2-2V7A2,2,0,0,0,11,5ZM8,5V3h2V5H8Z" fill="#8d9bb3"/><rect x="8.51" y="1.9" width="0.98" height="15.21" transform="translate(-3.58 13.12) rotate(-62.59)" fill="#8d9bb3"/><line x1="5.25" y1="7.5" x2="12.75" y2="11.5" fill="none" stroke="#fff" stroke-linecap="round" stroke-miterlimit="10" stroke-width="1.16"/></svg>