<?xml version="1.0" encoding="utf-8"?><svg xmlns="http://www.w3.org/2000/svg" xmlns:xlink="http://www.w3.org/1999/xlink"><symbol viewBox="0 0 18 18" id="kb-AirportChange"><title>SVG</title><path d="M3.93 12H2.07v-2A5.94 5.94 0 0 1 8 4v1.91c-3.37 0-4.07 3.23-4.07 4.09v2zM15.93 10A5.94 5.94 0 0 0 10 4v1.91c3.38 0 4.07 3.23 4.07 4.09H12l3 4.92L18 10h-2.07zM8 2h2v10H8zM8 14h2v2H8z" /><path d="M7.5 4zM10.5 4z"   stroke-miterlimit="10"/></symbol><symbol viewBox="0 0 18 18" id="kb-Arrow-Down"><title>SVG</title><path   stroke-linecap="round" stroke-linejoin="round" stroke-width="2" d="M4 7l5 5 5-5"/></symbol><symbol viewBox="0 0 18 18" id="kb-Arrow-Left"><title>SVG</title><path   stroke-linecap="round" stroke-linejoin="round" stroke-width="2" d="M11 4L6 9l5 5"/></symbol><symbol viewBox="0 0 18 18" id="kb-Arrow-Right"><title>SVG</title><path   stroke-linecap="round" stroke-linejoin="round" stroke-width="2" d="M7 4l5 5-5 5"/></symbol><symbol viewBox="0 0 18 18" id="kb-Arrow-Up"><title>SVG</title><path   stroke-linecap="round" stroke-linejoin="round" stroke-width="2" d="M4 11l5-5 5 5"/></symbol><symbol viewBox="0 0 18 18" id="kb-Checkbox"><title>SVG</title><path   stroke-linecap="round" stroke-linejoin="round" stroke-width="2" d="M3 9l4 4 7-9"/></symbol><symbol viewBox="0 0 18 18" id="kb-Chevron"><title>SVG</title><path   stroke-miterlimit="10" d="M13 7l-4 4-4-4"/></symbol><symbol viewBox="0 0 18 18" id="kb-Cross"><title>SVG</title><path   stroke-linecap="round" stroke-miterlimit="10" stroke-width="2" d="M5 5l8 8M13 5l-8 8"/></symbol><symbol viewBox="0 0 18 18" id="kb-NightTransfer"><title>SVG</title><path  d="M14 10H4V4H2v10h2v-2h10v2h2v-4h-2z"/><path d="M9 6h5a2 2 0 0 1 2 2v1H9V6z" /><rect x="5" y="6" width="3" height="3" rx="1.4" ry="1.4" /></symbol><symbol viewBox="0 0 18 18" id="kb-NoBaggage"><title>SVG</title><path d="M12 4H6a2 2 0 0 0-2 2v6a2 2 0 0 0 2 2H5v2h2v-2h4v2h2v-2h-1a2 2 0 0 0 2-2V6a2 2 0 0 0-2-2zM6 1h6v2H6z" /><path   stroke-miterlimit="10" stroke-width="1.2" d="M6 6l6 6M12 6l-6 6"/></symbol><symbol viewBox="0 0 18 18" id="kb-NoWayBack"><title>SVG</title><path  d="M4 4h2v10H4zM16 8h-5.59l3.3-3.29-1.42-1.42L6.59 9l5.7 5.71 1.42-1.42-3.3-3.29H16V8z"/></symbol><symbol viewBox="0 0 18 18" id="kb-Plus"><title>SVG</title><path   stroke-linecap="round" stroke-miterlimit="10" stroke-width="2" d="M9 13V5M5 9h8"/></symbol><symbol viewBox="0 0 18 18" id="kb-TransitVisa"><title>SVG</title><circle cx="9.05" cy="5.05" r="1.85" /><path  d="M6 10h6v6H6z"/><path d="M14.55 13.75l-4.46-3.81a.9.9 0 0 1 1.17-1.37l3.19 2.72 1.91-1.93a.9.9 0 0 1 1.28 1.27z" /><circle cx="10" cy="10" r="2" /><circle cx="8" cy="10" r="2" /><path  d="M6.24 9.04L2 16h4l.24-6.96zM8 8h2v1.35H8z"/><path   stroke-miterlimit="10" stroke-width="1.2" d="M11 8l-6 8"/></symbol></svg>